REM DIRINDEX 1\2,1\3,1\4,1\5,1\6,1\7,1\8
REM DIRNAME cjc152,folder01,folder02,folder03,folder04,folder05,folder06,folder07
TITLE ""
FILE "18_Ch4_Smartphone_PCLife_Tweets.mp3" MP3
  TRACK 01 AUDIO
    TITLE "0:"
    INDEX 01 00:00:00
  TRACK 02 AUDIO
    TITLE "8:cjc152_0945"
    INDEX 01 00:00:11
  TRACK 03 AUDIO
    TITLE "0:"
    INDEX 01 00:04:01
  TRACK 04 AUDIO
    TITLE "8:cjc152_0946"
    INDEX 01 00:04:60
  TRACK 05 AUDIO
    TITLE "0:"
    INDEX 01 00:06:30
  TRACK 06 AUDIO
    TITLE "4:cjc152_0947"
    INDEX 01 00:07:23
  TRACK 07 AUDIO
    TITLE "0:"
    INDEX 01 00:10:29
  TRACK 08 AUDIO
    TITLE "4:cjc152_0948"
    INDEX 01 00:11:23
  TRACK 09 AUDIO
    TITLE "0:"
    INDEX 01 00:14:68
  TRACK 10 AUDIO
    TITLE "4:cjc152_0949"
    INDEX 01 00:16:53
  TRACK 11 AUDIO
    TITLE "0:"
    INDEX 01 00:22:58
  TRACK 12 AUDIO
    TITLE "4:cjc152_0950"
    INDEX 01 00:23:51
  TRACK 13 AUDIO
    TITLE "0:"
    INDEX 01 00:28:72
  TRACK 14 AUDIO
    TITLE "4:cjc152_0951"
    INDEX 01 00:30:54
  TRACK 15 AUDIO
    TITLE "0:"
    INDEX 01 00:33:64
  TRACK 16 AUDIO
    TITLE "4:cjc152_0952"
    INDEX 01 00:34:57
  TRACK 17 AUDIO
    TITLE "0:"
    INDEX 01 00:39:11
  TRACK 18 AUDIO
    TITLE "4:cjc152_0953"
    INDEX 01 00:41:02
  TRACK 19 AUDIO
    TITLE "0:"
    INDEX 01 00:47:54
  TRACK 20 AUDIO
    TITLE "4:cjc152_0954"
    INDEX 01 00:48:48
  TRACK 21 AUDIO
    TITLE "0:"
    INDEX 01 00:56:65
  TRACK 22 AUDIO
    TITLE "4:cjc152_0955"
    INDEX 01 00:58:48
  TRACK 23 AUDIO
    TITLE "0:"
    INDEX 01 01:01:29
  TRACK 24 AUDIO
    TITLE "4:cjc152_0956"
    INDEX 01 01:02:20
  TRACK 25 AUDIO
    TITLE "0:"
    INDEX 01 01:06:32
  TRACK 26 AUDIO
    TITLE "4:cjc152_0957"
    INDEX 01 01:08:15
  TRACK 27 AUDIO
    TITLE "0:"
    INDEX 01 01:11:35
  TRACK 28 AUDIO
    TITLE "4:cjc152_0958"
    INDEX 01 01:12:28
  TRACK 29 AUDIO
    TITLE "0:"
    INDEX 01 01:16:01
  TRACK 30 AUDIO
    TITLE "4:cjc152_0959"
    INDEX 01 01:17:61
  TRACK 31 AUDIO
    TITLE "0:"
    INDEX 01 01:21:49
  TRACK 32 AUDIO
    TITLE "4:cjc152_0960"
    INDEX 01 01:22:42
  TRACK 33 AUDIO
    TITLE "0:"
    INDEX 01 01:25:47
  TRACK 34 AUDIO
    TITLE "4:cjc152_0961"
    INDEX 01 01:27:30
  TRACK 35 AUDIO
    TITLE "0:"
    INDEX 01 01:30:07
  TRACK 36 AUDIO
    TITLE "4:cjc152_0962"
    INDEX 01 01:31:00
  TRACK 37 AUDIO
    TITLE "0:"
    INDEX 01 01:34:24
  TRACK 38 AUDIO
    TITLE "4:cjc152_0963"
    INDEX 01 01:36:07
  TRACK 39 AUDIO
    TITLE "0:"
    INDEX 01 01:37:54
  TRACK 40 AUDIO
    TITLE "4:cjc152_0964"
    INDEX 01 01:38:45
  TRACK 41 AUDIO
    TITLE "0:"
    INDEX 01 01:40:13
  TRACK 42 AUDIO
    TITLE "4:cjc152_0965"
    INDEX 01 01:42:02
  TRACK 43 AUDIO
    TITLE "0:"
    INDEX 01 01:43:66
  TRACK 44 AUDIO
    TITLE "4:cjc152_0966"
    INDEX 01 01:44:60
  TRACK 45 AUDIO
    TITLE "0:"
    INDEX 01 01:47:09
  TRACK 46 AUDIO
    TITLE "4:cjc152_0967"
    INDEX 01 01:49:14
  TRACK 47 AUDIO
    TITLE "0:"
    INDEX 01 01:52:63
  TRACK 48 AUDIO
    TITLE "4:cjc152_0968"
    INDEX 01 01:53:57
  TRACK 49 AUDIO
    TITLE "0:"
    INDEX 01 01:57:43
  TRACK 50 AUDIO
    TITLE "4:cjc152_0969"
    INDEX 01 01:59:28
  TRACK 51 AUDIO
    TITLE "0:"
    INDEX 01 02:01:68
  TRACK 52 AUDIO
    TITLE "4:cjc152_0970"
    INDEX 01 02:02:64
  TRACK 53 AUDIO
    TITLE "0:"
    INDEX 01 02:05:33
  TRACK 54 AUDIO
    TITLE "4:cjc152_0971"
    INDEX 01 02:07:14
  TRACK 55 AUDIO
    TITLE "0:"
    INDEX 01 02:09:21
  TRACK 56 AUDIO
    TITLE "4:cjc152_0972"
    INDEX 01 02:10:14
  TRACK 57 AUDIO
    TITLE "0:"
    INDEX 01 02:13:40
  TRACK 58 AUDIO
    TITLE "4:cjc152_0973"
    INDEX 01 02:15:25
  TRACK 59 AUDIO
    TITLE "0:"
    INDEX 01 02:19:42
  TRACK 60 AUDIO
    TITLE "4:cjc152_0974"
    INDEX 01 02:20:36
  TRACK 61 AUDIO
    TITLE "0:"
    INDEX 01 02:23:56
  TRACK 62 AUDIO
    TITLE "4:cjc152_0975"
    INDEX 01 02:25:41
  TRACK 63 AUDIO
    TITLE "0:"
    INDEX 01 02:28:26
  TRACK 64 AUDIO
    TITLE "4:cjc152_0976"
    INDEX 01 02:29:19
  TRACK 65 AUDIO
    TITLE "0:"
    INDEX 01 02:31:18
  TRACK 66 AUDIO
    TITLE "4:cjc152_0977"
    INDEX 01 02:33:01
  TRACK 67 AUDIO
    TITLE "0:"
    INDEX 01 02:36:47
  TRACK 68 AUDIO
    TITLE "4:cjc152_0978"
    INDEX 01 02:37:38
  TRACK 69 AUDIO
    TITLE "0:"
    INDEX 01 02:41:36
  TRACK 70 AUDIO
    TITLE "4:cjc152_0979"
    INDEX 01 02:43:21
  TRACK 71 AUDIO
    TITLE "0:"
    INDEX 01 02:47:51
  TRACK 72 AUDIO
    TITLE "4:cjc152_0980"
    INDEX 01 02:48:42
  TRACK 73 AUDIO
    TITLE "0:"
    INDEX 01 02:53:08
  TRACK 74 AUDIO
    TITLE "4:cjc152_0981"
    INDEX 01 02:54:68
  TRACK 75 AUDIO
    TITLE "0:"
    INDEX 01 02:59:15
  TRACK 76 AUDIO
    TITLE "4:cjc152_0982"
    INDEX 01 03:00:06
  TRACK 77 AUDIO
    TITLE "0:"
    INDEX 01 03:05:52
  TRACK 78 AUDIO
    TITLE "4:cjc152_0983"
    INDEX 01 03:07:38
  TRACK 79 AUDIO
    TITLE "0:"
    INDEX 01 03:12:05
  TRACK 80 AUDIO
    TITLE "4:cjc152_0984"
    INDEX 01 03:12:72
  TRACK 81 AUDIO
    TITLE "0:"
    INDEX 01 03:17:09
  TRACK 82 AUDIO
    TITLE "4:cjc152_0985"
    INDEX 01 03:18:65
  TRACK 83 AUDIO
    TITLE "0:"
    INDEX 01 03:23:05
  TRACK 84 AUDIO
    TITLE "4:cjc152_0986"
    INDEX 01 03:23:72
  TRACK 85 AUDIO
    TITLE "0:"
    INDEX 01 03:27:74
  TRACK 86 AUDIO
    TITLE "4:cjc152_0987"
    INDEX 01 03:29:57
  TRACK 87 AUDIO
    TITLE "0:"
    INDEX 01 03:32:00
  TRACK 88 AUDIO
    TITLE "4:cjc152_0988"
    INDEX 01 03:32:67
  TRACK 89 AUDIO
    TITLE "0:"
    INDEX 01 03:35:55
  TRACK 90 AUDIO
    TITLE "4:cjc152_0989"
    INDEX 01 03:37:41
  TRACK 91 AUDIO
    TITLE "0:"
    INDEX 01 03:40:62
  TRACK 92 AUDIO
    TITLE "4:cjc152_0990"
    INDEX 01 03:41:54
  TRACK 93 AUDIO
    TITLE "0:"
    INDEX 01 03:47:25
  TRACK 94 AUDIO
    TITLE "4:cjc152_0991"
    INDEX 01 03:49:09
  TRACK 95 AUDIO
    TITLE "0:"
    INDEX 01 03:51:47
  TRACK 96 AUDIO
    TITLE "4:cjc152_0992"
    INDEX 01 03:52:48
  TRACK 97 AUDIO
    TITLE "0:"
    INDEX 01 03:55:05
  TRACK 98 AUDIO
    TITLE "4:cjc152_0993"
    INDEX 01 03:56:63
  TRACK 99 AUDIO
    TITLE "0:"
    INDEX 01 04:00:16
  TRACK 100 AUDIO
    TITLE "4:cjc152_0994"
    INDEX 01 04:01:10
  TRACK 101 AUDIO
    TITLE "0:"
    INDEX 01 04:06:68
  TRACK 102 AUDIO
    TITLE "4:cjc152_0995"
    INDEX 01 04:08:53
  TRACK 103 AUDIO
    TITLE "0:"
    INDEX 01 04:10:17
  TRACK 104 AUDIO
    TITLE "4:cjc152_0996"
    INDEX 01 04:11:08
  TRACK 105 AUDIO
    TITLE "0:"
    INDEX 01 04:12:47
  TRACK 106 AUDIO
    TITLE "4:cjc152_0997"
    INDEX 01 04:14:32
  TRACK 107 AUDIO
    TITLE "0:"
    INDEX 01 04:16:50
  TRACK 108 AUDIO
    TITLE "4:cjc152_0998"
    INDEX 01 04:17:42
  TRACK 109 AUDIO
    TITLE "0:"
    INDEX 01 04:19:47
  TRACK 110 AUDIO
    TITLE "4:cjc152_0999"
    INDEX 01 04:21:30
  TRACK 111 AUDIO
    TITLE "0:"
    INDEX 01 04:26:63
  TRACK 112 AUDIO
    TITLE "4:cjc152_1000"
    INDEX 01 04:27:58
  TRACK 113 AUDIO
    TITLE "0:"
    INDEX 01 04:33:65
  TRACK 114 AUDIO
    TITLE "4:cjc152_1001"
    INDEX 01 04:35:44
  TRACK 115 AUDIO
    TITLE "0:"
    INDEX 01 04:39:22
  TRACK 116 AUDIO
    TITLE "4:cjc152_1002"
    INDEX 01 04:40:18
  TRACK 117 AUDIO
    TITLE "0:"
    INDEX 01 04:44:29
  TRACK 118 AUDIO
    TITLE "4:cjc152_1003"
    INDEX 01 04:46:12
  TRACK 119 AUDIO
    TITLE "0:"
    INDEX 01 04:50:43
  TRACK 120 AUDIO
    TITLE "4:cjc152_1004"
    INDEX 01 04:51:37
  TRACK 121 AUDIO
    TITLE "0:"
    INDEX 01 04:55:66
  TRACK 122 AUDIO
    TITLE "4:cjc152_1005"
    INDEX 01 04:57:51
  TRACK 123 AUDIO
    TITLE "0:"
    INDEX 01 05:03:19
  TRACK 124 AUDIO
    TITLE "4:cjc152_1006"
    INDEX 01 05:04:10
  TRACK 125 AUDIO
    TITLE "0:"
    INDEX 01 05:10:17
  TRACK 126 AUDIO
    TITLE "4:cjc152_1007"
    INDEX 01 05:12:00
  TRACK 127 AUDIO
    TITLE "0:"
    INDEX 01 05:16:66
  TRACK 128 AUDIO
    TITLE "4:cjc152_1008"
    INDEX 01 05:17:60
  TRACK 129 AUDIO
    TITLE "0:"
    INDEX 01 05:24:25
  TRACK 130 AUDIO
    TITLE "4:cjc152_1009"
    INDEX 01 05:26:10
  TRACK 131 AUDIO
    TITLE "0:"
    INDEX 01 05:28:09
  TRACK 132 AUDIO
    TITLE "4:cjc152_1010"
    INDEX 01 05:29:06
  TRACK 133 AUDIO
    TITLE "0:"
    INDEX 01 05:30:61
  TRACK 134 AUDIO
    TITLE "4:cjc152_1011"
    INDEX 01 05:32:40
  TRACK 135 AUDIO
    TITLE "0:"
    INDEX 01 05:35:48
  TRACK 136 AUDIO
    TITLE "4:cjc152_1012"
    INDEX 01 05:36:42
  TRACK 137 AUDIO
    TITLE "0:"
    INDEX 01 05:39:32
  TRACK 138 AUDIO
    TITLE "4:cjc152_1013"
    INDEX 01 05:41:17
  TRACK 139 AUDIO
    TITLE "0:"
    INDEX 01 05:44:63
  TRACK 140 AUDIO
    TITLE "4:cjc152_1014"
    INDEX 01 05:45:52
  TRACK 141 AUDIO
    TITLE "0:"
    INDEX 01 05:49:56
  TRACK 142 AUDIO
    TITLE "4:cjc152_1015"
    INDEX 01 05:51:41
  TRACK 143 AUDIO
    TITLE "0:"
    INDEX 01 05:54:61
  TRACK 144 AUDIO
    TITLE "4:cjc152_1016"
    INDEX 01 05:55:57
  TRACK 145 AUDIO
    TITLE "0:"
    INDEX 01 05:58:47
  TRACK 146 AUDIO
    TITLE "4:cjc152_1017"
    INDEX 01 06:00:30
  TRACK 147 AUDIO
    TITLE "0:"
    INDEX 01 06:04:26
  TRACK 148 AUDIO
    TITLE "4:cjc152_1018"
    INDEX 01 06:05:18
  TRACK 149 AUDIO
    TITLE "0:"
    INDEX 01 06:09:41
  TRACK 150 AUDIO
    TITLE "4:cjc152_1019"
    INDEX 01 06:11:24
  TRACK 151 AUDIO
    TITLE "0:"
    INDEX 01 06:15:73
  TRACK 152 AUDIO
    TITLE "4:cjc152_1020"
    INDEX 01 06:16:69
  TRACK 153 AUDIO
    TITLE "0:"
    INDEX 01 06:22:65
  TRACK 154 AUDIO
    TITLE "4:cjc152_1021"
    INDEX 01 06:24:48
  TRACK 155 AUDIO
    TITLE "0:"
    INDEX 01 06:28:05
  TRACK 156 AUDIO
    TITLE "4:cjc152_1022"
    INDEX 01 06:29:01
  TRACK 157 AUDIO
    TITLE "0:"
    INDEX 01 06:32:40
  TRACK 158 AUDIO
    TITLE "4:cjc152_1023"
    INDEX 01 06:34:25
  TRACK 159 AUDIO
    TITLE "0:"
    INDEX 01 06:36:69
  TRACK 160 AUDIO
    TITLE "4:cjc152_1024"
    INDEX 01 06:37:73
  TRACK 161 AUDIO
    TITLE "0:"
    INDEX 01 06:40:14
  TRACK 162 AUDIO
    TITLE "4:cjc152_1025"
    INDEX 01 06:41:72
  TRACK 163 AUDIO
    TITLE "0:"
    INDEX 01 06:44:41
  TRACK 164 AUDIO
    TITLE "4:cjc152_1026"
    INDEX 01 06:45:33
  TRACK 165 AUDIO
    TITLE "0:"
    INDEX 01 06:47:65
  TRACK 166 AUDIO
    TITLE "4:cjc152_1027"
    INDEX 01 06:49:48
  TRACK 167 AUDIO
    TITLE "0:"
    INDEX 01 06:54:54
  TRACK 168 AUDIO
    TITLE "4:cjc152_1028"
    INDEX 01 06:55:43
  TRACK 169 AUDIO
    TITLE "0:"
    INDEX 01 07:01:54
  TRACK 170 AUDIO
    TITLE "4:cjc152_1029"
    INDEX 01 07:03:35
  TRACK 171 AUDIO
    TITLE "0:"
    INDEX 01 07:07:17
  TRACK 172 AUDIO
    TITLE "4:cjc152_1030"
    INDEX 01 07:08:11
  TRACK 173 AUDIO
    TITLE "0:"
    INDEX 01 07:11:60
  TRACK 174 AUDIO
    TITLE "4:cjc152_1031"
    INDEX 01 07:13:43
  TRACK 175 AUDIO
    TITLE "0:"
    INDEX 01 07:18:70
  TRACK 176 AUDIO
    TITLE "4:cjc152_1032"
    INDEX 01 07:19:61
  TRACK 177 AUDIO
    TITLE "0:"
    INDEX 01 07:25:58
  TRACK 178 AUDIO
    TITLE "4:cjc152_1033"
    INDEX 01 07:27:41
  TRACK 179 AUDIO
    TITLE "0:"
    INDEX 01 07:31:14
  TRACK 180 AUDIO
    TITLE "4:cjc152_1034"
    INDEX 01 07:32:07
  TRACK 181 AUDIO
    TITLE "0:"
    INDEX 01 07:35:54
  TRACK 182 AUDIO
    TITLE "4:cjc152_1035"
    INDEX 01 07:37:40
  TRACK 183 AUDIO
    TITLE "0:"
    INDEX 01 07:40:18
  TRACK 184 AUDIO
    TITLE "4:cjc152_1036"
    INDEX 01 07:41:14
  TRACK 185 AUDIO
    TITLE "0:"
    INDEX 01 07:43:40
  TRACK 186 AUDIO
    TITLE "4:cjc152_1037"
    INDEX 01 07:45:25
  TRACK 187 AUDIO
    TITLE "0:"
    INDEX 01 07:48:02
  TRACK 188 AUDIO
    TITLE "4:cjc152_1038"
    INDEX 01 07:48:73
  TRACK 189 AUDIO
    TITLE "0:"
    INDEX 01 07:51:65
  TRACK 190 AUDIO
    TITLE "4:cjc152_1039"
    INDEX 01 07:53:50
  TRACK 191 AUDIO
    TITLE "0:"
    INDEX 01 07:56:51
  TRACK 192 AUDIO
    TITLE "4:cjc152_1040"
    INDEX 01 07:57:40
  TRACK 193 AUDIO
    TITLE "0:"
    INDEX 01 08:01:58
  TRACK 194 AUDIO
    TITLE "4:cjc152_1041"
    INDEX 01 08:03:37
  TRACK 195 AUDIO
    TITLE "0:"
    INDEX 01 08:05:59
  TRACK 196 AUDIO
    TITLE "4:cjc152_1042"
    INDEX 01 08:06:59
  TRACK 197 AUDIO
    TITLE "0:"
    INDEX 01 08:10:12
  TRACK 198 AUDIO
    TITLE "4:cjc152_1043"
    INDEX 01 08:11:70
  TRACK 199 AUDIO
    TITLE "0:"
    INDEX 01 08:15:09
  TRACK 200 AUDIO
    TITLE "4:cjc152_1044"
    INDEX 01 08:16:00
  TRACK 201 AUDIO
    TITLE "0:"
    INDEX 01 08:19:34
  TRACK 202 AUDIO
    TITLE "4:cjc152_1045"
    INDEX 01 08:21:19
  TRACK 203 AUDIO
    TITLE "0:"
    INDEX 01 08:25:54
  TRACK 204 AUDIO
    TITLE "4:cjc152_1046"
    INDEX 01 08:26:66
  TRACK 205 AUDIO
    TITLE "0:"
    INDEX 01 08:30:61
  TRACK 206 AUDIO
    TITLE "4:cjc152_1047"
    INDEX 01 08:32:47
  TRACK 207 AUDIO
    TITLE "0:"
    INDEX 01 08:36:66
  TRACK 208 AUDIO
    TITLE "4:cjc152_1048"
    INDEX 01 08:37:57
  TRACK 209 AUDIO
    TITLE "0:"
    INDEX 01 08:41:34
  TRACK 210 AUDIO
    TITLE "4:cjc152_1049"
    INDEX 01 08:43:15
  TRACK 211 AUDIO
    TITLE "0:"
    INDEX 01 08:47:36
  TRACK 212 AUDIO
    TITLE "4:cjc152_1050"
    INDEX 01 08:48:28
  TRACK 213 AUDIO
    TITLE "0:"
    INDEX 01 08:52:41
  TRACK 214 AUDIO
    TITLE "4:cjc152_1051"
    INDEX 01 08:54:29
  TRACK 215 AUDIO
    TITLE "0:"
    INDEX 01 08:59:18
  TRACK 216 AUDIO
    TITLE "4:cjc152_1052"
    INDEX 01 09:00:12
  TRACK 217 AUDIO
    TITLE "0:"
    INDEX 01 09:05:46
